HIERARCHY
ROOT hip
{
  OFFSET 0 0 0
  CHANNELS 6 Xposition Yposition Zposition Zrotation Yrotation Xrotation
  JOINT abdomen
  {
    OFFSET 0 20.6881 -0.73152
    CHANNELS 3 Zrotation Xrotation Yrotation
    JOINT chest
    {
      OFFSET 0 11.7043 -0.48768
      CHANNELS 3 Zrotation Xrotation Yrotation
      JOINT neck
      {
        OFFSET 0 22.1894 -2.19456
        CHANNELS 3 Zrotation Xrotation Yrotation
        JOINT head
        {
          OFFSET -0.24384 7.07133 1.2192
          CHANNELS 3 Zrotation Xrotation Yrotation
          JOINT leftEye
          {
            OFFSET 4.14528 8.04674 8.04672
            CHANNELS 3 Zrotation Xrotation Yrotation
            End Site
            {
              OFFSET 1 0 0
            }
          }
          JOINT rightEye
          {
            OFFSET -3.6576 8.04674 8.04672
            CHANNELS 3 Zrotation Xrotation Yrotation
            End Site
            {
              OFFSET 1 0 0
            }
          }
        }
      }
      JOINT rCollar
      {
        OFFSET -2.68224 19.2634 -4.8768
        CHANNELS 3 Zrotation Xrotation Yrotation
        JOINT rShldr
        {
          OFFSET -8.77824 -1.95073 1.46304
          CHANNELS 3 Zrotation Xrotation Yrotation
          JOINT rForeArm
          {
            OFFSET -28.1742 -1.7115 0.48768
            CHANNELS 3 Zrotation Xrotation Yrotation
            JOINT rHand
            {
              OFFSET -22.5879 0.773209 7.07136
              CHANNELS 3 Zrotation Xrotation Yrotation
              JOINT rThumb1
              {
                OFFSET -1.2192 -0.487915 3.41376
                CHANNELS 3 Zrotation Xrotation Yrotation
                JOINT rThumb2
                {
                  OFFSET -3.37035 -0.52449 3.41376
                  CHANNELS 3 Zrotation Xrotation Yrotation
                  End Site
                  {
                    OFFSET -1.78271 -1.18214 1.43049
                  }
                }
              }
              JOINT rIndex1
              {
                OFFSET -7.75947 0.938293 5.60832
                CHANNELS 3 Zrotation Xrotation Yrotation
                JOINT rIndex2
                {
                  OFFSET -2.54057 -0.884171 1.56538
                  CHANNELS 3 Zrotation Xrotation Yrotation
                  End Site
                  {
                    OFFSET -1.62519 -0.234802 1.16502
                  }
                }
              }
              JOINT rMid1
              {
                OFFSET -8.24714 1.18213 3.41376
                CHANNELS 3 Zrotation Xrotation Yrotation
                JOINT rMid2
                {
                  OFFSET -3.10165 -0.590103 1.0647
                  CHANNELS 3 Zrotation Xrotation Yrotation
                  End Site
                  {
                    OFFSET -2.48547 -0.328903 0.83742
                  }
                }
              }
              JOINT rRing1
              {
                OFFSET -8.82822 0.546677 1.51678
                CHANNELS 3 Zrotation Xrotation Yrotation
                JOINT rRing2
                {
                  OFFSET -2.60934 -0.819778 -0.0198488
                  CHANNELS 3 Zrotation Xrotation Yrotation
                  End Site
                  {
                    OFFSET -2.33842 -0.294052 0.168128
                  }
                }
              }
              JOINT rPinky1
              {
                OFFSET -8.27202 -0.0477905 -0.4584
                CHANNELS 3 Zrotation Xrotation Yrotation
                JOINT rPinky2
                {
                  OFFSET -1.82734 -0.647385 -0.700984
                  CHANNELS 3 Zrotation Xrotation Yrotation
                  End Site
                  {
                    OFFSET -1.69225 -0.51767 -0.607171
                  }
                }
              }
            }
          }
        }
      }
      JOINT lCollar
      {
        OFFSET 2.68224 19.2634 -4.8768
        CHANNELS 3 Zrotation Xrotation Yrotation
        JOINT lShldr
        {
          OFFSET 8.77824 -1.95073 1.46304
          CHANNELS 3 Zrotation Xrotation Yrotation
          JOINT lForeArm
          {
            OFFSET 28.1742 -1.7115 0.48768
            CHANNELS 3 Zrotation Xrotation Yrotation
            JOINT lHand
            {
              OFFSET 22.5879 0.773209 7.07136
              CHANNELS 3 Zrotation Xrotation Yrotation
              JOINT lThumb1
              {
                OFFSET 1.2192 -0.487915 3.41376
                CHANNELS 3 Zrotation Xrotation Yrotation
                JOINT lThumb2
                {
                  OFFSET 3.37035 -0.52449 3.41376
                  CHANNELS 3 Zrotation Xrotation Yrotation
                  End Site
                  {
                    OFFSET 1.78271 -1.18214 1.43049
                  }
                }
              }
              JOINT lIndex1
              {
                OFFSET 7.75947 0.938293 5.60832
                CHANNELS 3 Zrotation Xrotation Yrotation
                JOINT lIndex2
                {
                  OFFSET 2.54057 -0.884171 1.56538
                  CHANNELS 3 Zrotation Xrotation Yrotation
                  End Site
                  {
                    OFFSET 1.62519 -0.234802 1.16502
                  }
                }
              }
              JOINT lMid1
              {
                OFFSET 8.24714 1.18213 3.41376
                CHANNELS 3 Zrotation Xrotation Yrotation
                JOINT lMid2
                {
                  OFFSET 3.10165 -0.590103 1.0647
                  CHANNELS 3 Zrotation Xrotation Yrotation
                  End Site
                  {
                    OFFSET 2.48547 -0.328903 0.83742
                  }
                }
              }
              JOINT lRing1
              {
                OFFSET 8.82822 0.546677 1.51678
                CHANNELS 3 Zrotation Xrotation Yrotation
                JOINT lRing2
                {
                  OFFSET 2.60934 -0.819778 -0.0198488
                  CHANNELS 3 Zrotation Xrotation Yrotation
                  End Site
                  {
                    OFFSET 2.33842 -0.294052 0.168128
                  }
                }
              }
              JOINT lPinky1
              {
                OFFSET 8.27202 -0.0477905 -0.4584
                CHANNELS 3 Zrotation Xrotation Yrotation
                JOINT lPinky2
                {
                  OFFSET 1.82734 -0.647385 -0.700984
                  CHANNELS 3 Zrotation Xrotation Yrotation
                  End Site
                  {
                    OFFSET 1.69225 -0.51767 -0.607171
                  }
                }
              }
            }
          }
        }
      }
    }
  }
  JOINT rButtock
  {
    OFFSET -8.77824 4.35084 1.2192
    CHANNELS 3 Zrotation Xrotation Yrotation
    JOINT rThigh
    {
      OFFSET 0 -1.70687 -2.19456
      CHANNELS 3 Zrotation Xrotation Yrotation
      JOINT rShin
      {
        OFFSET 0 -36.8199 0.73152
        CHANNELS 3 Zrotation Xrotation Yrotation
        JOINT rFoot
        {
          OFFSET 0.73152 -45.1104 -5.12064
          CHANNELS 3 Zrotation Xrotation Yrotation
          End Site
          {
            OFFSET -1.1221 -3.69964 12.103
          }
        }
      }
    }
  }
  JOINT lButtock
  {
    OFFSET 8.77824 4.35084 1.2192
    CHANNELS 3 Zrotation Xrotation Yrotation
    JOINT lThigh
    {
      OFFSET 0 -1.70687 -2.19456
      CHANNELS 3 Zrotation Xrotation Yrotation
      JOINT lShin
      {
        OFFSET 0 -36.8199 0.73152
        CHANNELS 3 Zrotation Xrotation Yrotation
        JOINT lFoot
        {
          OFFSET -0.73152 -45.1104 -5.12064
          CHANNELS 3 Zrotation Xrotation Yrotation
          End Site
          {
            OFFSET 1.1221 -3.69964 12.103
          }
        }
      }
    }
  }
}
MOTION
Frames:	4
Frame Time:	0.00833333
130.89360000000002 78.61970000000001 -59.448100000000004 -170.532102 2.902476 -171.871927 0.82908 -3.062582 -11.456151 4.506931 -10.78352 -2.586529 10.815375 12.012621 76.606765 -28.3373 3.063385 -104.313837 -0.003299 -0.0 0.001685 0.001963 -0.0 -0.000442 -155.504029 -3.514299 161.839231 102.158573 -72.298605 70.588187 168.624869 -44.892354 -156.351249 -17.174895 63.140593 10.486014 3.051089 -3.032452 -0.389364 23.593429 -42.858363 -18.512157 19.569244 -35.040124 -5.985229 88.244361 -61.268352 33.490738 -161.153443 -8.160473 143.465804 3.082393 0.391686 0.411625 -75.672825 -72.115822 -92.82904 -52.24307 -82.00689 -78.096964 -103.6879 -45.140178 -101.853168 43.659442 80.225651 -6.344767 83.674719 68.269054 -86.806048 -93.475947 -83.242177 -76.150029 103.488528 37.9457 -72.609358 -32.718776 -45.909935 -27.501217 -93.027763 -51.083318 -40.501849 88.232842 38.076363 -48.329526 10.57292 15.0125 -6.866861 9.424988 23.754099 -7.056347 160.672976 -6.667653 -143.246022 -14.064622 -31.899711 0.861199 0.000193 -0.018861 0.003687 156.395373 -21.698175 -174.397342 -26.848526 80.011968 -10.224171 25.800866 -40.707978 25.777059 -179.993564 75.748251 -0.00664 158.030359 28.63737 -128.556062 -123.32762 -65.684458 -0.698953 -92.265977 -68.103513 32.118699 -179.999086 75.750007 -0.001917 -170.003139 53.423313 -0.0 -10.028092 38.352654 -94.89896 -62.669325 85.66047 149.038551
130.5492 79.0574 -59.4959 -170.699014 2.770196 -171.889982 0.083265 -2.797871 0.0 2.581326 -11.658076 -14.602325 5.126712 25.23513 169.836441 -3.363295 40.298206 162.122385 -0.000409 -0.0 0.00121 0.00279 -0.0 -0.004555 -155.614039 -4.23635 161.991198 -141.445983 4.890051 158.509904 78.350449 -40.26348 84.433344 -164.693749 65.140682 146.328306 -8.967375 8.544982 2.028384 -159.430361 -64.804362 110.137998 -77.669082 43.029471 64.537705 -87.126526 51.758841 63.854149 -160.098679 -4.90112 142.968734 -88.641874 63.696544 80.365886 0.004997 1.77027 0.557359 -155.592596 -1.612438 172.046029 -124.850263 -29.037755 -122.620876 178.425895 78.917559 -135.034063 33.847316 -85.665139 55.264495 84.595765 77.904917 -91.860221 1.181265 -7.470119 -37.641681 7.93204 49.654006 -6.021437 -178.338381 -19.018244 -88.98883 4.942182 -56.583541 -0.222662 69.683104 43.292101 -57.341961 156.693914 2.33667 -112.310351 -0.541414 -1.590052 0.29313 -7.473067 -13.046668 1.270902 145.119685 0.310341 179.225235 -11.789439 26.290509 6.005158 25.536525 -38.087523 24.599038 -47.067513 83.241676 8.990067 -0.0 0.000168 0.001019 -26.963167 -42.501455 -19.371247 -154.7278 72.755642 -129.730881 -140.604435 10.696997 98.199681 -179.998001 75.749137 -0.0 -170.240271 54.312197 -11.957214 -18.738305 35.861399 -98.372493 -142.881666 58.283052 -143.017292
130.2158 79.46990000000001 -59.5519 -170.869099 2.66044 -171.899954 -0.130795 -2.599086 -1.213327 2.629033 -11.750435 -13.662898 2.048407 5.860095 15.480485 -7.092477 -19.815678 -45.587101 -0.000803 -0.0 0.005767 0.00239 -0.0 -9e-06 -153.659293 7.056964 159.422217 31.231029 3.841084 14.500407 -5.181383 -35.205578 -75.507105 135.953179 -52.686796 124.718888 -93.743484 37.963309 53.548575 -52.756214 -3.063581 45.606211 -161.900233 -36.242874 122.690008 -13.454029 39.221305 5.689248 -0.286661 0.83265 0.161267 2.834072 1.184442 0.130574 -13.616611 -53.680543 -25.679363 -59.448652 -84.679474 -84.71033 12.990188 44.344175 10.759244 38.003236 80.964264 -2.227022 155.548544 -3.804311 -161.899793 124.172611 65.609782 -133.892252 -168.99685 -62.958001 -93.977202 -146.401262 -42.922651 -135.63967 2.608753 2.554409 -0.457711 137.028783 -39.960203 -117.269399 166.865206 -44.037419 -122.052845 -177.766635 -51.293566 -110.366238 151.477182 17.841432 -137.537704 7.40356 26.129592 -6.43153 145.117604 0.226041 179.200721 -11.799012 55.668009 2.233506 148.681779 23.977629 144.839464 21.540572 -36.787576 22.878731 -179.999764 75.749231 -0.000243 158.191752 23.590167 145.71369 117.216789 -34.813012 6.883908 -135.845834 -20.859457 111.914512 -2.9e-05 0.000411 3.7e-05 5.468694 -20.127673 1.989172 -4.034042 40.743019 147.256338 132.515983 60.730758 139.677136
129.8918 79.8514 -59.616800000000005 -171.052892 2.575469 -171.907062 0.388158 -2.565902 -20.976666 5.579836 -10.49385 6.200909 -9.031957 14.71075 -71.577147 31.392157 -0.190788 42.573148 -0.000389 0.0 -0.002809 0.001659 0.0 0.000768 -80.166637 68.370948 83.26088 24.998013 24.061718 -13.720535 -179.223559 -28.121549 -143.850595 -10.836066 52.750258 6.348135 -166.63113 -4.304988 89.771333 -0.987383 -50.894 10.756865 -0.327772 0.529895 0.185913 2.320267 12.494961 2.293999 -151.476173 17.842002 137.539822 166.179593 -64.927351 131.473589 -0.008423 -0.872111 -0.275371 10.379226 0.336531 -0.024062 0.707625 1.878528 0.650007 -151.809544 27.390761 -146.917919 5.824476 24.937397 -6.98935 162.056005 -0.929723 -174.049615 -24.315802 -24.227881 61.617572 -156.097045 -29.519682 -143.993177 -83.253803 -50.258205 -33.616145 150.777399 -4.794154 -116.837073 -159.644369 -69.974065 -102.397889 60.503976 55.500984 -49.119765 -2.101555 -6.305125 1.082217 17.971174 42.269397 -14.39757 70.380183 -72.128648 87.280938 -14.026673 27.428974 0.842539 111.059146 -41.159017 109.116244 75.523433 -53.499618 76.088501 -179.974904 75.749657 -0.020649 160.636843 21.264699 -135.902087 -154.267048 -59.790132 -37.819758 72.616395 43.612333 -4.00566 179.990046 75.747574 0.008783 -172.830292 53.944433 149.696623 17.187671 -24.395382 -147.317538 110.691548 -9.068823 -19.910368
